<?xml version="1.0" encoding="utf-8"?>
<!-- Generator: Adobe Illustrator 16.0.0, SVG Export Plug-In . SVG Version: 6.00 Build 0)  -->
<!DOCTYPE svg PUBLIC "-//W3C//DTD SVG 1.1//EN" "http://www.w3.org/Graphics/SVG/1.1/DTD/svg11.dtd">
<svg version="1.1" id="Layer_1" xmlns="http://www.w3.org/2000/svg" xmlns:xlink="http://www.w3.org/1999/xlink" x="0px" y="0px"
	 width="62px" height="62px" viewBox="26.4 0 62 62" enable-background="new 0 0 62 62" xml:space="preserve">
<g>
	<circle fill="#DE5833" cx="57.381" cy="31" r="26.05"/>
	<ellipse fill="none" stroke="#DE5833" stroke-width="2.25" stroke-miterlimit="10" cx="57.377" cy="31" rx="29.25" ry="29.208"/>
	<g>
		<g>
			<g>
				<g>
					<g>
						<g>
							<g>
								<g>
									<g>
										<g>
											<g>
												<defs>
													<path id="SVGID_1_" d="M83.663,30.928c0,14.494-11.79,26.283-26.285,26.283c-14.492,0-26.28-11.791-26.28-26.283
														c0-14.491,11.79-26.28,26.28-26.28C71.873,4.647,83.663,16.437,83.663,30.928z"/>
												</defs>
												<clipPath id="SVGID_2_">
													<use xlink:href="#SVGID_1_"  overflow="visible"/>
												</clipPath>
												<g clip-path="url(#SVGID_2_)">
													<path fill="#D5D7D8" d="M68.054,69.801c-0.917-4.221-6.244-13.771-8.265-17.809c-2.019-4.037-4.042-9.73-3.122-13.402
														c0.167-0.668-1.749-5.759-1.198-6.119c4.285-2.795,5.415,0.307,7.13-0.947c0.885-0.646,2.083,0.531,2.39-0.541
														c1.098-3.854-1.531-10.571-4.465-13.508c-0.959-0.957-2.43-1.558-4.089-1.877c-0.638-0.872-1.668-1.712-3.125-2.484
														c-1.624-0.864-5.154-2.005-6.984-2.309c-1.269-0.209-1.555,0.146-2.098,0.234c0.505,0.045,2.902,1.229,3.37,1.299
														c-0.467,0.315-1.837-0.015-2.712,0.377c-0.44,0.2-0.77,0.957-0.767,1.314c2.5-0.253,6.402-0.008,8.708,1.018
														c-1.834,0.209-4.624,0.442-5.823,1.072c-3.487,1.838-5.027,6.129-4.109,11.27c0.919,5.13,4.959,23.856,6.245,30.109
														c1.286,6.246-2.754,10.281-5.324,11.383l2.754,0.186l-0.917,2.021c3.302,0.368,6.974-0.73,6.974-0.73
														c-0.733,2.021-5.692,2.756-5.692,2.756s2.39,0.729,6.243-0.736c3.857-1.467,6.244-2.389,6.244-2.389l1.835,4.771
														l3.491-3.486l1.469,3.672C66.216,74.943,68.972,74.021,68.054,69.801z"/>
													<path fill="#FFFFFF" d="M69.163,68.943c-0.915-4.221-6.241-13.771-8.263-17.812c-2.021-4.04-4.041-9.73-3.122-13.4
														c0.17-0.668,0.174-3.396,0.728-3.758c4.283-2.8,3.979-0.096,5.696-1.35c0.886-0.646,1.595-1.429,1.904-2.501
														c1.103-3.855-1.531-10.571-4.468-13.509c-0.956-0.958-2.427-1.559-4.086-1.876c-0.637-0.875-1.665-1.712-3.123-2.485
														c-2.745-1.458-6.148-2.041-9.301-1.469c0.504,0.046,1.658,1.089,2.123,1.157c-0.703,0.477-2.572,0.416-2.561,1.475
														c2.503-0.25,5.247,0.145,7.554,1.17c-1.834,0.208-3.542,0.661-4.741,1.294c-3.491,1.834-4.408,5.506-3.491,10.65
														c0.92,5.142,4.961,23.868,6.242,30.112c1.287,6.239-2.751,10.277-5.321,11.381l2.754,0.186l-0.917,2.021
														c3.302,0.363,6.974-0.733,6.974-0.733c-0.732,2.021-5.691,2.754-5.691,2.754s2.386,0.733,6.242-0.735
														c3.859-1.468,6.248-2.386,6.248-2.386l1.833,4.772l3.491-3.489l1.471,3.673C67.331,74.084,70.083,73.165,69.163,68.943
														z"/>
													<path fill="#2D4F8E" d="M48.055,26.788c0-1.065,0.861-1.929,1.93-1.929c1.064,0,1.927,0.862,1.927,1.929
														c0,1.066-0.863,1.928-1.927,1.928C48.917,28.716,48.055,27.854,48.055,26.788z"/>
													<path fill="#FFFFFF" d="M50.34,26.144c0-0.277,0.225-0.5,0.499-0.5c0.277,0,0.501,0.224,0.501,0.5
														s-0.224,0.501-0.501,0.501C50.565,26.646,50.34,26.422,50.34,26.144z"/>
													<path fill="#2D4F8E" d="M61.217,25.644c0-0.913,0.744-1.655,1.656-1.655c0.917,0,1.657,0.742,1.657,1.655
														c0,0.917-0.741,1.659-1.657,1.659C61.961,27.303,61.217,26.561,61.217,25.644z"/>
													<path fill="#FFFFFF" d="M63.181,25.093c0-0.235,0.193-0.429,0.427-0.429c0.243,0,0.429,0.193,0.429,0.429
														c0,0.239-0.187,0.429-0.429,0.429C63.374,25.521,63.181,25.331,63.181,25.093z"/>

														<linearGradient id="SVGID_3_" gradientUnits="userSpaceOnUse" x1="1628.1709" y1="-2962.8423" x2="1632.5332" y2="-2962.8423" gradientTransform="matrix(1 0 0 -1 -1582 -2941)">
														<stop  offset="0.0056" style="stop-color:#6176B9"/>
														<stop  offset="0.691" style="stop-color:#394A9F"/>
													</linearGradient>
													<path fill="url(#SVGID_3_)" d="M50.533,21.2c0,0-1.454-0.657-2.867,0.23c-1.41,0.887-1.358,1.794-1.358,1.794
														s-0.75-1.672,1.249-2.491C49.558,19.915,50.533,21.2,50.533,21.2z"/>

														<linearGradient id="SVGID_4_" gradientUnits="userSpaceOnUse" x1="1641.8945" y1="-2961.5132" x2="1645.8701" y2="-2961.5132" gradientTransform="matrix(1 0 0 -1 -1582 -2941)">
														<stop  offset="0.0056" style="stop-color:#6176B9"/>
														<stop  offset="0.691" style="stop-color:#394A9F"/>
													</linearGradient>
													<path fill="url(#SVGID_4_)" d="M63.87,21.067c0,0-1.043-0.597-1.855-0.587c-1.664,0.021-2.12,0.758-2.12,0.758
														s0.279-1.754,2.411-1.403C63.461,20.028,63.87,21.067,63.87,21.067z"/>
												</g>
											</g>
										</g>
									</g>
								</g>
							</g>
						</g>
					</g>
				</g>
			</g>
		</g>
		<path fill="#FDD20A" d="M55.887,34.225c0.193-1.166,3.208-3.374,5.342-3.508c2.139-0.134,2.806-0.104,4.588-0.531
			c1.787-0.428,6.383-1.572,7.656-2.16c1.275-0.589,6.672,0.292,2.868,2.413c-1.647,0.921-6.083,2.612-9.253,3.56
			c-3.167,0.946-5.087-0.906-6.14,0.651c-0.838,1.233-0.171,2.933,3.614,3.285c5.11,0.476,10.01-2.304,10.55-0.828
			c0.542,1.476-4.393,3.312-7.398,3.373c-3,0.057-9.051-1.981-9.957-2.615C56.846,37.232,55.635,35.761,55.887,34.225z"/>
	</g>
	<g>
		<path fill="#65BC46" d="M58.199,50.161c0,0-7.179-3.829-7.297-2.276c-0.121,1.557,0,7.898,0.837,8.377
			c0.838,0.479,6.821-3.109,6.821-3.109L58.199,50.161z"/>
		<path fill="#65BC46" d="M60.951,49.921c0,0,4.906-3.712,5.985-3.472c1.075,0.244,1.315,7.898,0.356,8.262
			c-0.957,0.355-6.572-1.943-6.572-1.943L60.951,49.921z"/>
		<path fill="#43A244" d="M56.462,50.566c0,2.511-0.361,3.59,0.718,3.828c1.075,0.236,3.108,0,3.828-0.479
			c0.717-0.478,0.118-3.708-0.12-4.31C60.647,49.01,56.462,49.49,56.462,50.566z"/>
		<path fill="#65BC46" d="M56.918,50.009c0,2.511-0.359,3.589,0.718,3.828c1.073,0.241,3.108,0,3.828-0.478
			c0.717-0.479,0.119-3.705-0.122-4.312C61.103,48.453,56.918,48.934,56.918,50.009z"/>
	</g>
</g>
</svg>

