<?xml version="1.0" encoding="utf-8"?>
<!-- Generator: Adobe Illustrator 17.0.0, SVG Export Plug-In . SVG Version: 6.00 Build 0)  -->
<!DOCTYPE svg PUBLIC "-//W3C//DTD SVG 1.1//EN" "http://www.w3.org/Graphics/SVG/1.1/DTD/svg11.dtd">
<svg version="1.1" id="Layer_1" xmlns="http://www.w3.org/2000/svg" xmlns:xlink="http://www.w3.org/1999/xlink" x="0px" y="0px"
	 width="474px" height="88.825px" viewBox="254.173 28 474 88.825" enable-background="new 0 0 474 88.825"
	 xml:space="preserve">
<g>
	<g>
		<path fill="#FFFFFF" d="M171.872,122.557h-24.246V59.672c0-4.837-0.251-7.938-0.746-9.305c-0.997-2.85-3.357-4.278-7.087-4.278
			c-5.1,0-10.631,2.667-16.599,7.999v68.468H99.508V60.751c0-4.948-0.315-8.288-0.938-10.022c-1.131-3.092-3.698-4.639-7.705-4.639
			c-5.514,0-11.024,2.413-16.535,7.239v69.229H50.084V55.975c0-12.059-1.183-20.204-3.544-24.432l22.567-6.155
			c1.367,2.238,2.486,5.473,3.357,9.698c6.714-6.464,14.483-9.698,23.313-9.698c7.833,0,14.297,2.611,19.397,7.833
			c0.994,1.119,2.238,2.675,3.73,4.662c8.206-8.329,17.22-12.496,27.043-12.496c9.573,0,16.413,2.55,20.516,7.647
			c3.605,4.602,5.409,11.814,5.409,21.635V122.557z"/>
	</g>
</g>
<g>
	<g>
		<path fill="#FFFFFF" d="M331.668,113.486h-14.944V74.727c0-2.982-0.154-4.893-0.46-5.735c-0.614-1.757-2.069-2.637-4.368-2.637
			c-3.143,0-6.552,1.644-10.231,4.93v42.201h-14.599V75.392c0-3.05-0.194-5.108-0.578-6.177c-0.697-1.906-2.279-2.86-4.749-2.86
			c-3.398,0-6.795,1.487-10.191,4.462v42.669h-14.944V72.448c0-7.432-0.729-12.453-2.184-15.059l13.909-3.793
			c0.842,1.379,1.532,3.373,2.069,5.977c4.138-3.984,8.927-5.977,14.369-5.977c4.828,0,8.812,1.609,11.955,4.828
			c0.613,0.69,1.38,1.649,2.299,2.874c5.058-5.133,10.613-7.702,16.668-7.702c5.9,0,10.116,1.571,12.645,4.713
			c2.222,2.836,3.334,7.282,3.334,13.335V113.486z"/>
		<path fill="#FFFFFF" d="M395.696,83.828c0,8.966-2.184,16.248-6.552,21.841c-4.753,6.055-11.495,9.081-20.232,9.081
			c-8.507,0-15.136-3.027-19.887-9.081c-4.368-5.518-6.552-12.645-6.552-21.381c0-8.737,2.184-15.901,6.552-21.496
			c4.751-6.208,11.38-9.311,19.887-9.311c8.582,0,15.289,2.989,20.117,8.967C393.472,67.965,395.696,75.092,395.696,83.828z
			 M378.913,83.769c0-5.38-0.422-9.415-1.264-12.106c-1.457-4.533-4.293-6.802-8.507-6.802c-4.063,0-6.822,2.346-8.277,7.034
			c-0.844,2.691-1.265,6.725-1.265,12.106c0,5.841,0.383,10.03,1.15,12.566c1.38,4.767,4.253,7.149,8.622,7.149
			C375.732,103.715,378.913,97.068,378.913,83.769z"/>
		<path fill="#FFFFFF" d="M447.194,102.796l-3.678,10.691h-43.337v-9.541l27.741-38.164h-25.442V54.975h43.682v10.576
			l-25.979,37.245H447.194z"/>
		<path fill="#FFFFFF" d="M472.598,38.422c0,2.684-0.92,4.943-2.759,6.782c-1.839,1.839-4.101,2.759-6.782,2.759
			c-2.606,0-4.828-0.937-6.667-2.816c-1.839-1.877-2.759-4.118-2.759-6.725c0-2.682,0.938-4.943,2.816-6.782
			c1.877-1.839,4.156-2.759,6.84-2.759c2.682,0,4.904,0.92,6.667,2.759C471.716,33.479,472.598,35.74,472.598,38.422z
			 M470.758,113.486h-15.404V55.555l15.404-2.42V113.486z"/>
		<path fill="#FFFFFF" d="M509.153,113.353c-2.759,1.085-5.825,1.627-9.196,1.627c-7.127,0-11.688-2.685-13.679-8.057
			c-0.92-2.455-1.379-6.868-1.379-13.238v-43.97c0-6.906-0.269-12.816-0.805-17.726l15.749-3.569
			c0.535,2.989,0.805,8.086,0.805,15.289v45.866c0,5.902,0,8.776,0,8.622c0.383,4.063,1.762,6.093,4.138,6.093
			c0.613,0,1.187-0.075,1.724-0.23L509.153,113.353z"/>
		<path fill="#FFFFFF" d="M540.42,113.353c-2.759,1.085-5.825,1.627-9.196,1.627c-7.127,0-11.688-2.685-13.679-8.057
			c-0.92-2.455-1.379-6.868-1.379-13.238v-43.97c0-6.906-0.269-12.816-0.805-17.726l15.749-3.569
			c0.535,2.989,0.805,8.086,0.805,15.289v45.866c0,5.902,0,8.776,0,8.622c0.383,4.063,1.762,6.093,4.138,6.093
			c0.612,0,1.187-0.075,1.724-0.23L540.42,113.353z"/>
		<path fill="#FFFFFF" d="M596.057,107.049l-8.162,9.426c-3.986-1.686-6.745-4.061-8.277-7.127
			c-1.534,1.457-2.721,2.491-3.564,3.104c-2.989,2.145-6.937,3.219-11.84,3.219c-6.285,0-11.15-1.491-14.599-4.471
			c-3.756-3.132-5.633-7.754-5.633-13.868c0-13.446,9.392-20.171,28.176-20.171c1.221,0,2.366,0,3.436,0v-2.389
			c0-3.109-0.383-5.232-1.146-6.371c-0.916-1.516-2.825-2.276-5.726-2.276c-4.735,0-10.384,2.184-16.948,6.552l-6.527-11.036
			c2.759-1.762,5.938-3.371,9.541-4.828c5.67-2.299,11.036-3.449,16.093-3.449c10.269,0,16.591,3.411,18.967,10.231
			c0.765,2.224,1.11,5.748,1.035,10.576l-0.345,20.807c0,3.066,0.305,5.365,0.92,6.897
			C592.224,103.64,593.758,105.364,596.057,107.049z M575.25,87.737h-0.679c-4.605,0-7.811,0.384-9.622,1.149
			c-3.019,1.304-4.528,3.909-4.528,7.817c0,2.146,0.593,3.966,1.782,5.46c1.187,1.494,2.854,2.242,5,2.242
			c2.911,0,5.593-1.34,8.047-4.023V87.737z"/>
	</g>
</g>
<g>
	<path fill="#FFFFFF" d="M619.039,98.029c5.132,0,9.037,4.016,9.037,9.036c0,4.909-3.905,9.038-9.037,9.038
		c-5.02,0-9.037-4.129-9.037-9.038C610.001,102.045,614.018,98.029,619.039,98.029z"/>
	<path fill="#FFFFFF" d="M675.828,99.925l6.582,9.373c-5.579,4.462-11.827,6.805-18.855,6.805
		c-18.408,0-28.226-12.384-28.226-30.904c0-18.072,10.041-31.461,28.003-31.461c7.251,0,13.499,2.12,19.078,6.916l-6.471,8.703
		c-4.351-3.348-7.921-4.351-11.938-4.351c-8.478,0-13.499,6.023-13.499,20.192c0,14.28,5.132,19.3,13.388,19.3
		C667.906,104.499,671.365,103.273,675.828,99.925z"/>
	<path fill="#FFFFFF" d="M701.382,103.273h27.445l-1.45,11.156h-42.394v-10.264l26.998-37.597h-26.106V55.412h42.506v10.262
		L701.382,103.273z"/>
</g>
</svg>